<svg width="24" height="24" viewBox="0 0 24 24" fill="none" xmlns="http://www.w3.org/2000/svg">
<path d="M22.6288 7.61056C22.6169 6.71079 22.4484 5.81997 22.1311 4.97795C21.8559 4.2677 21.4355 3.62268 20.8969 3.08408C20.3583 2.54547 19.7133 2.12515 19.0031 1.84994C18.1719 1.53792 17.2937 1.36921 16.4061 1.35098C15.2632 1.2999 14.9009 1.28564 11.9998 1.28564C9.09871 1.28564 8.72687 1.28564 7.59233 1.35098C6.70508 1.36934 5.82737 1.53806 4.99655 1.84994C4.28619 2.12495 3.64107 2.54522 3.10244 3.08384C2.56382 3.62247 2.14355 4.26759 1.86854 4.97795C1.5559 5.80852 1.38755 6.68642 1.37077 7.57373C1.31969 8.71777 1.30424 9.08011 1.30424 11.9812C1.30424 14.8823 1.30424 15.253 1.37077 16.3887C1.38859 17.2773 1.5561 18.1541 1.86854 18.9868C2.14402 19.697 2.56459 20.3419 3.10339 20.8802C3.6422 21.4186 4.28739 21.8387 4.99774 22.1137C5.82629 22.4382 6.70415 22.619 7.59352 22.6483C8.73756 22.6993 9.0999 22.7148 12.001 22.7148C14.9021 22.7148 15.2739 22.7148 16.4085 22.6483C17.2961 22.6308 18.1743 22.4625 19.0054 22.1505C19.7155 21.875 20.3604 21.4545 20.8989 20.916C21.4375 20.3774 21.8579 19.7325 22.1334 19.0225C22.4459 18.1909 22.6134 17.3141 22.6312 16.4243C22.6823 15.2815 22.6977 14.9191 22.6977 12.0168C22.6954 9.11575 22.6954 8.74747 22.6288 7.61056ZM11.9927 17.4674C8.95853 17.4674 6.50056 15.0094 6.50056 11.9753C6.50056 8.94112 8.95853 6.48314 11.9927 6.48314C13.4493 6.48314 14.8462 7.06178 15.8762 8.09175C16.9062 9.12172 17.4848 10.5187 17.4848 11.9753C17.4848 13.4319 16.9062 14.8288 15.8762 15.8588C14.8462 16.8888 13.4493 17.4674 11.9927 17.4674ZM17.7034 7.56066C17.5352 7.56082 17.3686 7.5278 17.2131 7.46349C17.0577 7.39919 16.9164 7.30486 16.7975 7.18591C16.6785 7.06696 16.5842 6.92572 16.5199 6.77027C16.4556 6.61482 16.4226 6.44822 16.4227 6.28C16.4227 6.1119 16.4558 5.94544 16.5202 5.79013C16.5845 5.63483 16.6788 5.49372 16.7977 5.37485C16.9165 5.25598 17.0576 5.1617 17.2129 5.09737C17.3682 5.03304 17.5347 4.99993 17.7028 4.99993C17.8709 4.99993 18.0374 5.03304 18.1927 5.09737C18.348 5.1617 18.4891 5.25598 18.608 5.37485C18.7268 5.49372 18.8211 5.63483 18.8854 5.79013C18.9498 5.94544 18.9829 6.1119 18.9829 6.28C18.9829 6.98804 18.4103 7.56066 17.7034 7.56066Z" fill="#052838"/>
<path d="M11.9927 15.5428C13.963 15.5428 15.5602 13.9456 15.5602 11.9753C15.5602 10.005 13.963 8.4077 11.9927 8.4077C10.0224 8.4077 8.42512 10.005 8.42512 11.9753C8.42512 13.9456 10.0224 15.5428 11.9927 15.5428Z" fill="#052838"/>
</svg>
